<svg width="50" height="50" fill="none" xmlns="http://www.w3.org/2000/svg"><circle cx="25" cy="25" r="25" fill="#0078FF"/><path fill-rule="evenodd" clip-rule="evenodd" d="M24.375 13.75c-5.986 0-10.625 4.384-10.625 10.306 0 3.098 1.27 5.775 3.337 7.624a.856.856 0 01.287.605l.057 1.89a.851.851 0 001.193.752l2.108-.93a.847.847 0 01.567-.042c.968.267 2 .408 3.076.408C30.361 34.363 35 29.978 35 24.056c0-5.922-4.639-10.306-10.625-10.306zm6.38 7.93l-3.122 4.95a1.595 1.595 0 01-2.304.426l-2.482-1.862a.638.638 0 00-.768.002l-3.352 2.544c-.447.34-1.033-.197-.731-.671l3.121-4.952a1.595 1.595 0 012.305-.425l2.482 1.862c.229.171.54.169.767-.002l3.352-2.544c.447-.34 1.033.197.732.671z" fill="#fff"/></svg>