<svg width="50" height="50" fill="none" xmlns="http://www.w3.org/2000/svg"><circle cx="25" cy="25" r="25" fill="#7360F2"/><path d="M32.905 17.074c-.527-.49-2.663-2.04-7.416-2.058 0 0-5.608-.341-8.36 2.167-1.525 1.524-2.059 3.75-2.117 6.509-.058 2.759-.128 7.93 4.856 9.332v2.142s0 .868.54 1.042c.689.218 1.094-.444 1.756-1.152.36-.392.862-.964 1.235-1.402 2.12.198 4.26.042 6.329-.463.688-.225 4.585-.72 5.222-5.898.675-5.331-.296-8.701-2.045-10.22zm.579 9.84c-.54 4.316-3.698 4.586-4.277 4.772a17.65 17.65 0 01-5.448.47s-2.16 2.572-2.836 3.28a.366.366 0 01-.309.128c-.116-.032-.148-.167-.148-.366V31.64c-4.219-1.177-3.974-5.576-3.923-7.878.052-2.303.483-4.194 1.769-5.467 2.309-2.09 7.075-1.782 7.075-1.782 4.02 0 5.949 1.229 6.392 1.634 1.499 1.273 2.252 4.309 1.705 8.766z" fill="#fff"/><path d="M27.444 23.84a.27.27 0 01-.27-.258 1.286 1.286 0 00-1.35-1.402.27.27 0 11.032-.54 1.806 1.806 0 011.858 1.93.269.269 0 01-.257.282l-.013-.013z" fill="#fff"/><path d="M28.828 24.303a.272.272 0 01-.246-.173.27.27 0 01-.018-.104 3.1 3.1 0 00-.804-2.27 3.35 3.35 0 00-2.34-1.023.27.27 0 11.038-.534 3.904 3.904 0 012.7 1.19 3.64 3.64 0 01.933 2.624.264.264 0 01-.263.29z" fill="#fff"/><path d="M30.236 24.856a.27.27 0 01-.27-.27 5.147 5.147 0 00-1.447-3.86 4.953 4.953 0 00-3.563-1.408.27.27 0 110-.54 5.507 5.507 0 013.936 1.563A5.712 5.712 0 0130.5 24.56a.27.27 0 01-.27.27l.006.026zm-4.341 2.315a.732.732 0 00.58-.218l.398-.502a.861.861 0 011.1-.148c.34.197.672.412.99.643.302.225.913.733.913.74a.753.753 0 01.161.99c-.219.38-.497.724-.823 1.017a1.64 1.64 0 01-.843.405.363.363 0 01-.122 0c-.12.002-.24-.016-.354-.052a12.543 12.543 0 01-2.302-1.067 13.47 13.47 0 01-1.93-1.287c-.303-.24-.593-.498-.868-.771h-.032a11.42 11.42 0 01-.772-.875 14.028 14.028 0 01-1.286-1.93 12.12 12.12 0 01-1.061-2.302 1.172 1.172 0 01-.058-.36.64.64 0 010-.122c.05-.313.19-.604.405-.837.247-.374.554-.707.907-.984a.759.759 0 01.997.161s.514.643.733.913c.219.27.489.74.643.991a.881.881 0 01-.154 1.106l-.502.393a.747.747 0 00-.218.585 5.203 5.203 0 003.498 3.511z" fill="#fff"/></svg>